<svg width="17" height="20" viewBox="0 0 17 20" fill="none" xmlns="http://www.w3.org/2000/svg">
<path d="M12.6684 3.65387C11.7144 3.24426 10.5842 3.22862 8.94361 3.60829L8.91808 3.6137L8.12326 0.788799L6.45787 1.17696L7.25597 4.00703C6.75935 4.12742 6.21126 4.25999 5.67415 4.39597L4.87649 1.54269L3.20852 1.92877L3.99987 4.78997C3.41729 4.94761 0.586868 5.56366 0.586868 5.56366L1.01958 7.22696L3.18197 6.76877L5.51106 15.0922L3.36908 15.5489L3.81883 17.2411C3.81883 17.2411 6.65334 16.6574 7.29843 16.5369L8.09472 19.4138L9.76011 19.0257L8.96863 16.1921C9.52899 16.083 10.0848 15.9486 10.572 15.8493L11.3464 18.6677L13.0118 18.2795L12.2424 15.5068C14.0671 15.0381 15.261 14.3882 15.8868 13.5068C16.1498 13.1243 16.3231 12.6962 16.3959 12.2494C16.4686 11.8027 16.4393 11.3471 16.3096 10.9113C15.8285 9.17348 14.1581 8.57843 12.8754 8.58451L12.8678 8.5506C14.0777 7.78659 14.6142 6.60875 14.3012 5.48102C14.0449 4.55437 13.4532 3.94926 12.6684 3.65387ZM11.9484 11.7561C12.2296 12.7719 11.5242 13.7285 9.96416 14.0921L8.62899 14.3993L7.68703 11.0154C8.09683 10.8425 8.525 10.7085 8.96482 10.6155C10.4536 10.2745 11.6079 10.5233 11.9484 11.7561V11.7561ZM10.6865 6.81948C10.7677 7.09119 10.7702 7.37753 10.6936 7.65037C10.617 7.92321 10.464 8.17318 10.2496 8.37572C9.90943 8.7216 9.39071 8.99611 8.70847 9.15342L8.69903 9.15839L7.37116 9.4652L6.43203 6.07979C6.84168 5.90849 7.26943 5.77586 7.70862 5.68395C7.71428 5.68096 7.71806 5.67897 7.72373 5.67599C8.39369 5.52515 8.99229 5.49235 9.47995 5.61454C10.0735 5.76481 10.5025 6.14656 10.6865 6.81948V6.81948Z" fill="white"/>
</svg>
