<svg width="18" height="19" viewBox="0 0 18 19" fill="none" xmlns="http://www.w3.org/2000/svg">
<path d="M14.8358 11.4124C14.4726 11.3257 14.098 11.2917 13.7244 11.3116C13.4532 11.3226 13.1847 11.2561 12.9527 11.1204C12.7208 10.9846 12.5358 10.7858 12.4211 10.5489L12.3067 10.3196C12.202 10.1081 12.1568 9.87388 12.1755 9.64028C12.1942 9.40668 12.2761 9.18187 12.4131 8.98825L12.6478 8.65761C12.775 8.47413 12.948 8.32442 13.1511 8.22224C13.3541 8.12007 13.5806 8.06872 13.8096 8.07292C14.1278 8.08222 14.4458 8.05278 14.7563 7.9853C16.4075 7.63041 17.6627 6.25879 17.7897 4.63478C17.8339 4.0785 17.7477 3.51978 17.5376 2.99985C17.3275 2.47993 16.9989 2.01206 16.5759 1.6308C16.1528 1.24953 15.6463 0.964601 15.0936 0.797033C14.541 0.629465 13.9563 0.583539 13.3827 0.662645C11.8013 0.872052 10.2823 2.36601 10.0928 3.89248C9.98198 4.75265 10.1875 5.62303 10.6738 6.35247C10.9834 6.81647 10.9908 7.40888 10.6572 7.8569L10.355 8.26359C10.2243 8.43937 10.0515 8.58217 9.85118 8.67984C9.65089 8.77751 9.42907 8.82716 9.20457 8.82458V8.82458C8.94803 8.82157 8.69742 8.74986 8.4808 8.6175C8.26418 8.48514 8.0901 8.29734 7.97804 8.07512C7.6001 7.31989 6.96844 6.7096 6.18537 6.34308C5.4023 5.97656 4.51367 5.87528 3.66337 6.05562C2.81307 6.23597 2.05089 6.68739 1.50024 7.33678C0.949603 7.98617 0.642746 8.79551 0.629363 9.63374C0.615981 10.472 0.896857 11.29 1.42651 11.9554C1.95616 12.6208 2.70357 13.0945 3.54771 13.3C4.39186 13.5054 5.28331 13.4304 6.07771 13.0873C6.87211 12.7441 7.52293 12.1528 7.9248 11.4091C8.04306 11.1981 8.21898 11.0221 8.43354 10.9003C8.64809 10.7785 8.89312 10.7155 9.14218 10.7181H9.27897C9.50072 10.718 9.71925 10.769 9.91638 10.8668C10.1135 10.9646 10.2835 11.1063 10.4122 11.2802L10.6234 11.5656C10.9542 12.012 10.9502 12.6 10.6492 13.0656C10.1782 13.7939 9.98351 14.6566 10.098 15.5074C10.2943 17.0245 11.815 18.508 13.3855 18.7163C13.9594 18.7952 14.5444 18.7489 15.0972 18.5809C15.65 18.4129 16.1566 18.1274 16.5794 17.7455C17.0022 17.3636 17.3305 16.8952 17.54 16.3747C17.7495 15.8543 17.8348 15.2952 17.7897 14.7387C17.6627 13.1444 16.4481 11.7943 14.8358 11.4124Z" fill="white"/>
</svg>
